<svg xmlns="http://www.w3.org/2000/svg" viewBox="0 0 32 32" role="img" aria-hidden="true">
  <defs>
    <linearGradient id="g1" x1="0" x2="0" y1="0" y2="1">
      <stop offset="0%" stop-color="#4FD1C5"/>
      <stop offset="100%" stop-color="#2CA4A0"/>
    </linearGradient>
    <linearGradient id="g2" x1="0" x2="0" y1="0" y2="1">
      <stop offset="0%" stop-color="#f59e0b"/>
      <stop offset="100%" stop-color="#b45309"/>
    </linearGradient>
  </defs>
  <!-- Lion (profil minimal) -->
  <path d="M10 20c0-6 4-10 8.5-10 1.8 0 2.8.6 3.8 1.4-.8 0-1.6.2-2.3.6 1 .6 1.7 1.5 1.7 2.7 0 1.9-1.6 3.3-3.5 3.3h-1.2c-.8 0-1.5.6-1.5 1.4 0 .6.4 1.1 1 1.3-1.6.4-3 1.3-3.5 3.3z" fill="url(#g1)"/>
  <!-- Oeil -->
  <circle cx="17.5" cy="13.5" r="0.8" fill="#0f172a"/>
  <!-- Épi de blé stylisé -->
  <g transform="translate(3,3)">
    <path d="M19 7c0 6-3 10-6.5 13" stroke="url(#g2)" stroke-width="1.6" fill="none" stroke-linecap="round"/>
    <path d="M18 8l-2-1m1 3l-2-1m1 3l-2-1m1 3l-2-1" stroke="url(#g2)" stroke-width="1.6" stroke-linecap="round"/>
  </g>
</svg>
